<svg width="223" height="48" viewBox="0 0 223 48" fill="none" xmlns="http://www.w3.org/2000/svg">
<g clip-path="url(#clip0_1068_1395)">
<path fill-rule="evenodd" clip-rule="evenodd" d="M14.8018 20.1125L0.31057 7.7749C0.12806 7.6289 0.0185547 7.37338 0.0185547 7.11787V0.876046C0.0185547 0.401521 0.420076 0 0.8946 0H6.51589C7.02692 0 7.39194 0.401521 7.39194 0.876046V4.12471L18.4885 13.5422L29.5486 4.12471V0.876046C29.5486 0.401521 29.9501 0 30.4246 0H36.0824C36.557 0 36.922 0.401521 36.922 0.876046V7.11787C36.922 7.37338 36.849 7.6289 36.63 7.7749L22.1752 20.1125V23.3977C22.1752 23.8722 21.7737 24.2738 21.2992 24.2738H15.6414C15.1668 24.2738 14.8018 23.8722 14.8018 23.3977V20.1125Z" fill="white"/>
<path fill-rule="evenodd" clip-rule="evenodd" d="M7.39194 38.4007L14.8018 32.1224V28.8372C14.8018 28.3627 15.1668 27.9612 15.6414 27.9612H21.2992C21.7737 27.9612 22.1752 28.3627 22.1752 28.8372V32.1224L29.5486 38.4007V19.9673C29.5486 19.6753 29.6581 19.4562 29.8771 19.3102L35.4984 14.492C35.7539 14.273 36.1189 14.2 36.4475 14.346C36.7395 14.492 36.922 14.8205 36.922 15.149V47.1247C36.922 47.5992 36.557 48.0007 36.0824 48.0007H29.7311C29.5121 48.0007 29.3296 47.9277 29.1836 47.7817L18.4885 38.6927L7.79346 47.7817C7.61095 47.9277 7.42844 48.0007 7.20943 48.0007H0.8946C0.420076 48.0007 0.0185547 47.5992 0.0185547 47.1247V15.149C0.0185547 14.8205 0.201064 14.492 0.529581 14.346C0.858099 14.2 1.18662 14.273 1.44213 14.492L7.09992 19.2737C7.28243 19.4562 7.39194 19.6753 7.39194 19.9673V38.4007Z" fill="white"/>
<path d="M222.68 34.9322H217.935L212.168 27.7413V34.9322H208.116V12.812H212.168V26.0987L217.607 19.1268H222.498L216.147 26.9382L222.68 34.9322ZM198.808 35.3702C196.436 35.3702 194.428 34.5671 192.858 32.9976C191.252 31.3915 190.449 29.3839 190.449 27.0477C190.449 24.6751 191.252 22.704 192.858 21.0979C194.428 19.4919 196.436 18.6888 198.808 18.6888C200.341 18.6888 201.765 19.0538 203.006 19.7839C204.283 20.5504 205.232 21.536 205.889 22.777L202.385 24.8211C202.057 24.1641 201.582 23.6531 200.925 23.2881C200.305 22.8865 199.575 22.704 198.772 22.704C197.567 22.704 196.545 23.1055 195.742 23.9086C194.939 24.7481 194.537 25.7702 194.537 27.0477C194.537 28.2888 194.939 29.3109 195.742 30.1139C196.545 30.917 197.567 31.355 198.772 31.355C199.611 31.355 200.341 31.136 200.962 30.7709C201.619 30.4059 202.093 29.8949 202.422 29.2379L205.962 31.282C205.269 32.523 204.283 33.5086 203.006 34.2751C201.765 35.0052 200.341 35.3702 198.808 35.3702ZM175.958 30.2599C176.797 31.063 177.856 31.501 179.097 31.501C180.375 31.501 181.433 31.063 182.236 30.2599C183.076 29.4204 183.514 28.3618 183.514 27.0477C183.514 25.7337 183.076 24.6751 182.236 23.8356C181.433 22.996 180.375 22.5945 179.097 22.5945C177.856 22.5945 176.797 22.996 175.958 23.8356C175.155 24.6751 174.753 25.7337 174.753 27.0477C174.753 28.3618 175.155 29.4204 175.958 30.2599ZM183.514 19.1268H187.566V34.9322H183.514V33.0706C182.273 34.6036 180.557 35.3702 178.331 35.3702C176.25 35.3702 174.425 34.5671 172.928 32.9611C171.432 31.355 170.665 29.3839 170.665 27.0477C170.665 24.7116 171.432 22.704 172.928 21.0979C174.425 19.4919 176.25 18.6888 178.331 18.6888C180.557 18.6888 182.273 19.4554 183.514 20.9884V19.1268ZM163.219 12.812H167.562V34.9322H163.219V25.7702H155.006V34.9322H150.662V12.812H155.006V21.609H163.219V12.812Z" fill="white"/>
<path d="M135.477 25.5512H143.544C143.289 24.4926 142.814 23.6896 142.084 23.142C141.354 22.631 140.551 22.339 139.602 22.339C138.507 22.339 137.594 22.631 136.901 23.1785C136.171 23.7626 135.696 24.5291 135.477 25.5512ZM135.514 28.7268C136.098 30.6979 137.558 31.6835 140.003 31.6835C141.537 31.6835 142.741 31.1725 143.544 30.1139L146.829 32.012C145.26 34.2751 142.96 35.3702 139.93 35.3702C137.302 35.3702 135.222 34.6036 133.652 32.9976C132.046 31.428 131.279 29.4569 131.279 27.0477C131.279 24.6386 132.046 22.6675 133.616 21.0614C135.149 19.4919 137.156 18.6888 139.602 18.6888C141.938 18.6888 143.836 19.4919 145.333 21.0979C146.866 22.704 147.596 24.6751 147.596 27.0477C147.596 27.5588 147.559 28.1063 147.45 28.7268H135.514ZM106.86 34.9322L100.983 12.812H105.582L109.816 29.2014L114.452 12.812H118.212L122.848 29.1649L127.045 12.812H131.279L125.439 34.9322H120.475L116.277 20.2584L112.116 34.9322H106.86Z" fill="white"/>
<path d="M91.4557 23.6166C91.4557 24.0546 91.7477 24.3831 92.2952 24.6386C92.8427 24.9306 93.5363 25.1497 94.3393 25.3322C95.1423 25.5512 95.9454 25.8067 96.7484 26.0987C97.515 26.4272 98.2085 26.9382 98.756 27.6318C99.3401 28.3618 99.5956 29.2379 99.5956 30.3329C99.5956 31.939 99.0115 33.1801 97.807 34.0561C96.5659 34.9322 95.0693 35.3702 93.2442 35.3702C89.9956 35.3702 87.8055 34.1291 86.6009 31.6105L90.1416 29.6394C90.6161 30.99 91.6382 31.6835 93.2442 31.6835C94.7043 31.6835 95.4344 31.2455 95.4344 30.3329C95.4344 29.8949 95.1423 29.5664 94.5948 29.3109C94.0473 29.0189 93.3537 28.7998 92.5507 28.5808C91.7477 28.3618 90.9446 28.1063 90.1416 27.7778C89.3385 27.4858 88.6815 26.9747 88.0975 26.2812C87.5499 25.6242 87.2944 24.7481 87.2944 23.7261C87.2944 22.1565 87.842 20.9154 89.01 20.0394C90.1416 19.1268 91.5652 18.6888 93.2807 18.6888C94.5583 18.6888 95.7264 18.9808 96.7849 19.5649C97.8435 20.1489 98.683 20.9519 99.3036 22.047L95.7994 23.9451C95.3249 22.85 94.4488 22.339 93.2807 22.339C92.7697 22.339 92.3317 22.4485 91.9667 22.6675C91.6382 22.923 91.4557 23.2151 91.4557 23.6166ZM73.3142 25.5512H81.3811C81.1621 24.4926 80.6876 23.6896 79.9576 23.142C79.2275 22.631 78.388 22.339 77.4754 22.339C76.3804 22.339 75.4678 22.631 74.7378 23.1785C74.0442 23.7626 73.5697 24.5291 73.3142 25.5512ZM73.3872 28.7268C73.9347 30.6979 75.4313 31.6835 77.8404 31.6835C79.41 31.6835 80.5781 31.1725 81.3811 30.1139L84.6663 32.012C83.1332 34.2751 80.8336 35.3702 77.8039 35.3702C75.1758 35.3702 73.0952 34.6036 71.4891 32.9976C69.9195 31.428 69.1165 29.4569 69.1165 27.0477C69.1165 24.6386 69.9195 22.6675 71.4526 21.0614C73.0222 19.4919 75.0298 18.6888 77.4754 18.6888C79.8115 18.6888 81.7096 19.4919 83.2062 21.0979C84.7393 22.704 85.4693 24.6751 85.4693 27.0477C85.4693 27.5588 85.4328 28.1063 85.3233 28.7268H73.3872ZM71.1971 12.812L63.6047 26.3177V34.9322H59.261V26.3177L51.7051 12.812H56.6328L61.4146 22.0105L66.2328 12.812H71.1971Z" fill="white"/>
</g>
<defs>
<clipPath id="clip0_1068_1395">
<rect width="222.699" height="48" fill="white"/>
</clipPath>
</defs>
</svg>
